<svg width="45" height="42" viewBox="0 0 45 42" fill="none" xmlns="http://www.w3.org/2000/svg">
<path d="M24.16 7.87C23.32 6.95 22.3 6.23 21.1 5.71C19.9 5.17 18.66 4.9 17.38 4.9C16.1 4.9 14.99 5.04 14.05 5.32C13.11 5.6 12.26 5.98 11.5 6.46C9.92 7.48 8.76 8.84 8.02 10.54H10.48C11.08 9.46 11.92 8.62 13 8.02C14.06 7.4 15.27 7.09 16.63 7.09C17.99 7.09 19.15 7.3 20.11 7.72C21.07 8.12 21.88 8.68 22.54 9.4C23.9 10.88 24.58 12.77 24.58 15.07C24.58 17.39 23.91 19.28 22.57 20.74C21.15 22.28 19.27 23.05 16.93 23.05C15.05 23.05 13.43 22.47 12.07 21.31C10.63 20.09 9.91 18.48 9.91 16.48H17.17V14.44H7.84V25H9.91V21.49C11.05 23.21 12.63 24.36 14.65 24.94C15.39 25.14 16.37 25.24 17.59 25.24C18.79 25.24 19.99 24.98 21.19 24.46C22.39 23.92 23.41 23.19 24.25 22.27C25.97 20.39 26.83 17.99 26.83 15.07C26.83 12.19 25.94 9.79 24.16 7.87Z" fill="white"/>
<path d="M29.28 23.05C30.7 23.05 31.94 22.69 33 21.97C34.08 21.25 34.88 20.28 35.4 19.06H37.77C37.11 20.94 36.02 22.42 34.5 23.5C32.88 24.66 30.97 25.24 28.77 25.24C25.87 25.24 23.52 24.25 21.72 22.27C20.02 20.37 19.17 17.97 19.17 15.07C19.17 12.17 20.02 9.77 21.72 7.87C23.52 5.89 25.87 4.9 28.77 4.9C30.97 4.9 32.88 5.48 34.5 6.64C36.02 7.72 37.11 9.2 37.77 11.08H35.4C34.88 9.86 34.08 8.89 33 8.17C31.94 7.45 30.7 7.09 29.28 7.09C27.86 7.09 26.68 7.3 25.74 7.72C24.8 8.12 24.01 8.68 23.37 9.4C22.07 10.86 21.42 12.75 21.42 15.07C21.42 17.39 22.07 19.28 23.37 20.74C24.73 22.28 26.7 23.05 29.28 23.05Z" fill="white"/>
</svg>
